<svg id="Icon_ionic-ios-trash" data-name="Icon ionic-ios-trash" xmlns="http://www.w3.org/2000/svg" width="410.781" height="571.521" viewBox="0 0 410.781 571.521">
  <path id="Path_142" data-name="Path 142" d="M9.359,9,44.483,441.659a43.574,43.574,0,0,0,43.608,43.608H297.947a43.574,43.574,0,0,0,43.608-43.608L376.233,9ZM101.04,403.409,91.068,56.627H118.6l10.27,346.782Zm104.63,0H178.88V56.627h26.79Zm77.84,0H255.827L265.948,56.627h27.534Z" transform="translate(13.115 86.253)" fill="#fff"/>
  <path id="Path_143" data-name="Path 143" d="M374.428,46.173h-53.58L281.7,11.942A30.169,30.169,0,0,0,262.058,4.5H165.614a30.649,30.649,0,0,0-19.944,7.442L106.527,46.173H52.947c-26.195,0-44.65,12.5-44.65,38.7H419.078C419.078,58.675,400.622,46.173,374.428,46.173Z" transform="translate(-8.297 -4.5)" fill="#fff"/>
</svg>
