<svg xmlns="http://www.w3.org/2000/svg" xmlns:xlink="http://www.w3.org/1999/xlink" viewBox="0 0 1216.11 628.8"><defs><style>.cls-1{fill:#a86337;}.cls-2{fill:#d47700;}.cls-3{fill:#ffffd2;}.cls-4{fill:url(#linear-gradient);}.cls-5{fill:#d86713;}.cls-6{fill:#f1a34f;}.cls-7{fill:#c95c12;}.cls-8{fill:#ffd5ab;}.cls-9{fill:#f78b4a;}.cls-10{fill:#f7d172;}.cls-11{fill:#ebf2f9;}.cls-12{fill:#a6c7f9;}.cls-13{fill:#1c468a;}.cls-14{fill:#699dee;}.cls-15{fill:#9e6138;}.cls-16{fill:#d88029;}.cls-17{fill:#233862;}.cls-18{fill:#2b478b;}.cls-19{fill:#ab7041;}.cls-20{fill:#9c5f33;}.cls-21{fill:#e2923d;}.cls-22{fill:#b77446;}.cls-23{fill:#365da4;}.cls-24{fill:#eae2b7;}.cls-25{fill:#d1c490;}.cls-26{fill:#aa443e;}.cls-27{fill:#d9935c;}.cls-28{fill:#fc9749;}.cls-29{fill:#fcbf49;}.cls-30{fill:#cc7c46;}.cls-31{fill:#fff;}.cls-32{fill:#3300c9;}.cls-33{fill:#ffe563;}.cls-34{fill:#ffa160;}</style><linearGradient id="linear-gradient" x1="583" y1="1051.76" x2="595.66" y2="-192.24" gradientUnits="userSpaceOnUse"><stop offset="0.29" stop-color="#ffffd2"/><stop offset="0.34" stop-color="#fff8cc"/><stop offset="0.4" stop-color="#ffe6bd"/><stop offset="0.48" stop-color="#ffc8a3"/><stop offset="0.56" stop-color="#ff9e7f"/><stop offset="0.64" stop-color="#ff745b"/></linearGradient></defs><title>Logistik</title><g id="Layer_2" data-name="Layer 2"><g id="Layer_1-2" data-name="Layer 1"><path class="cls-1" d="M1015.77,341.89c-5.74-1.12-17.93-1.2-35.47-3.74a31.2,31.2,0,0,1-4.35-1.73c-3.76-1.88-13.79-3.13-15.92-1.13s2.26,10.15,11.4,10.4a58.19,58.19,0,0,1,7.38.61,224.9,224.9,0,0,0,24.16,9.46c4.42,1.4,9,2.71,13.45,3.69A32.48,32.48,0,0,0,1015.77,341.89Z"/><path class="cls-2" d="M1150.11,623.8v4H18.09c-.06-1.34-.09-2.67-.09-4Z"/><path class="cls-3" d="M1175.37,559.51c-14.88,24.82-31.4,47-45,65.29l-1.74,2.33c-.43.56-.85,1.12-1.28,1.67H.09c0-.56,0-1.12-.06-1.67,0-.78,0-1.56,0-2.33,0-19.41,4.81-38.39,12.82-59,6.78-17.46,15.82-36.06,26-57,23.85-49.09,36-54.35,62.79-106,21.75-42,31.16-72.21,46.05-117C193.94,146.62,217.07,77,228.26,63.8c99-117,386.69-38.82,414.44-31,148.67,41.92,114,85.32,397.69,227,92.17,46,141.55,64.84,164.31,119C1231.37,442.27,1207,506.78,1175.37,559.51Z"/><path class="cls-4" d="M1175.37,559.51c-14.88,24.82-31.4,47-45,65.29l-1.74,2.33H0c0-.78,0-1.56,0-2.33,0-19.41,4.81-38.39,12.82-59h42V554.09H62.1V483.57h41.59v28h28v11.75H148.9V511.6h9.94v-9.05h18.08v11.76H186v45.2h9v10h9v-10l6.6-6.6v-38.6H236.6V470h8.14V432H259.2V401.29h13.56v31.64h8.14V423h7.23v10.85H301.7v9h13.56V490.8h10.85v28.93h13.56v17.18h12.66v-75h3.61V447.4h5.43V410.33h7.23v34.36h9.95v15.37h18.08v8.14h9V445.59h26.22V470h17.18v44.21h15.37v-103H499.7v-9.95h7.24v8.14h11.75v28H525v57h11.75v6.32h23.51V508h23.51v36.16h63.29v7.24h19V540.53h20.8v27.12h39.78v-47h10V508h28v9.94h13.57v23.51h35.26v10h17.18V564h8.14v18.09H855V569.46h11.75V538.72h22.61V422.08h53.34v77.76h11.76v84.09h21.7V431.13h9V338.9h18.08v-19h4.52v16.27h12.66v-6.33h9.94V395h16.28V583h11.75V498.94l5-5V422.08H1082V409.43h17.18v12.65h15.37v-19h18.08V517h11.76v41.59h10.84v-9.94h14.47v10.84Z"/><rect class="cls-5" x="313.1" y="518.01" width="78.15" height="78.15"/><rect class="cls-6" x="337.19" y="518.01" width="78.15" height="78.15"/><polygon class="cls-7" points="337.19 518.01 313.1 532.62 313.1 518.01 337.19 518.01"/><polygon class="cls-8" points="352.24 563.65 321.94 563.65 323.21 560.12 321.94 556.29 351.95 556.29 350.11 560.26 352.24 563.65"/><polygon class="cls-7" points="337.09 556.29 337.09 563.65 321.94 563.65 323.21 560.12 321.94 556.29 337.09 556.29"/><rect class="cls-9" x="379.53" y="533.99" width="62.17" height="62.17"/><rect class="cls-10" x="398.7" y="533.99" width="62.17" height="62.17"/><rect class="cls-11" x="441.44" y="539.14" width="15.19" height="7.72" transform="translate(-97.65 98.45) rotate(-11.29)"/><polygon class="cls-11" points="406.96 543.84 390.11 543.84 390.82 541.87 390.11 539.74 406.8 539.74 405.78 541.95 406.96 543.84"/><polygon class="cls-12" points="398.53 539.74 398.53 543.84 390.11 543.84 390.82 541.87 390.11 539.74 398.53 539.74"/><polygon class="cls-11" points="406.96 590.15 390.11 590.15 390.82 588.18 390.11 586.05 406.8 586.05 405.78 588.26 406.96 590.15"/><polygon class="cls-12" points="398.53 586.05 398.53 590.15 390.11 590.15 390.82 588.18 390.11 586.05 398.53 586.05"/><path class="cls-13" d="M291.75,609.74a8.54,8.54,0,1,0,8.53,8.53A8.53,8.53,0,0,0,291.75,609.74Z"/><path class="cls-14" d="M291.75,612.72a5.48,5.48,0,1,0,5.47,5.48A5.48,5.48,0,0,0,291.75,612.72Z"/><path class="cls-13" d="M463.54,609.74a8.54,8.54,0,1,0,8.53,8.53A8.53,8.53,0,0,0,463.54,609.74Z"/><path class="cls-14" d="M463.54,612.72A5.48,5.48,0,1,0,469,618.2,5.48,5.48,0,0,0,463.54,612.72Z"/><path class="cls-13" d="M481.32,596.16H306.72L237,405.82a4.5,4.5,0,0,0-4.06-3l-23.23-1a4.52,4.52,0,1,0-.37,9l20.21.83,67.51,184.39H281.91a4.39,4.39,0,0,0-4.37,4.37v5.22a4.39,4.39,0,0,0,4.37,4.38H481.32a4.39,4.39,0,0,0,4.38-4.38v-5.22A4.39,4.39,0,0,0,481.32,596.16Z"/><g id="man"><path class="cls-15" d="M206.66,388.05s8.69,5.73,15.39,6,10.68,6.95,11.6,9.74-1.74,7.07-3.81,4.53c-3.11-3.83-9.48-.84-15.56-5.86s-15.16-8.25-15.16-8.25Z"/><path class="cls-16" d="M129.11,293.94s18.67,66.81,33.57,80.31c7.74,7,50.54,35.55,54.07,26.44,0,0,5.29-6.46,2.35-10.28,0,0-36-25.88-38.79-27.62-4.87-3,1.13-63.7-11.65-74.14S136.24,275.49,129.11,293.94Z"/><path class="cls-17" d="M204.51,626.66l-3.67.11H165.57a6.07,6.07,0,0,1-1.68-.34c-3.17-1.51-1.71-15.49-1.71-15.49S175.9,599.51,178,608s13.49,12.11,20,13S204.51,626.66,204.51,626.66Z"/><path class="cls-18" d="M93.09,453.75c6.79,13.85,22.88,33.14,28.82,48.09a27.52,27.52,0,0,1,2.25,9.75c.14,33.54,36.56,99.69,36.56,99.69C164.19,613.53,179,609,179,609s-1.72-14.7-10.23-65.49c-4.69-28-12.6-69.74-18.75-101.52-1.58-8.18-3.05-15.71-4.31-22.17-2.74-13.94-4.53-22.93-4.53-22.93l-14.12.23-38.14.63S73.1,413,93.09,453.75Z"/><path class="cls-17" d="M93.09,453.75c6.79,13.85,22.88,33.14,28.82,48.09C130.32,484,143.09,457,150,442c-1.58-8.18-3.05-15.71-4.31-22.17-5.49-6.72-12.55-15.33-18.65-22.7l-38.14.63S73.1,413,93.09,453.75Z"/><path class="cls-17" d="M46.94,626.77H27.82a11.76,11.76,0,0,1-4-7.17c-1.11-5.72-7.68-8.58-9.27-13.23s5.28-11.56,5.28-11.56l2.31-3.23,12,2.3a111.82,111.82,0,0,1,1.13,14.6c-.09,6.29,2.29,12.95,7.91,13.94C47.27,623.14,47.26,625.53,46.94,626.77Z"/><path class="cls-18" d="M99.77,536.44c-7.17,13-60,73.43-60,73.43s-16.66-5.62-19.63-15.74c0,0,31.27-51.38,45.49-73.28,4.06-6.26,6.32-102,20.81-119.4,18.17-21.86,51.06,19.62,51.06,19.62s-10.29,33.47-13.49,44C116.89,488.46,104.71,527.47,99.77,536.44Z"/><path class="cls-19" d="M201.66,393.05s8.7,5.72,15.39,6,10.68,7,11.6,9.74-1.74,7.08-3.8,4.54c-3.12-3.84-9.49-.85-15.57-5.87s-15.15-8.25-15.15-8.25Z"/><path class="cls-20" d="M170.06,281.75a112,112,0,0,0,7.46-14.21L165.2,245.93c-7.18,20.24-23.75,24.81-23.75,24.81s19.37,21.27,35,22.34A35.77,35.77,0,0,0,170.06,281.75Z"/><path class="cls-19" d="M181.9,268.87s-24.44-5.19-21-20.36,2.65-26,18.4-23.37,17.44,9.16,17.51,14.5S188.34,269.84,181.9,268.87Z"/><path class="cls-17" d="M160.7,249.56s8-19,30.1-13.87c15.14,3.51,11.17-11.85,10.28-14.39,0,0-11.76-2.21-23.92-4.15C151.62,213.08,159.34,245.73,160.7,249.56Z"/><path class="cls-21" d="M181.19,315.57c-.48,7.58-2.77,19.07-5.87,31.82-1.21,4.94-2.54,10.06-3.93,15.22-2.26,8.38-4.61,16.8-7,24.73l-.1.28c-.17.81-.44,1.66-.69,2.45-2.11,7-4.13,13.48-5.89,19-3.37,10.52-3.39,16.38-6.08,17.57-5.4,2.39-26.68-.18-39.43-5.7-10.77-4.59-27.18-18.42-27.1-25.38.1-8.07,10.93-32.36,18.1-60.73,8.86-34.65,28.5-62.32,44.89-68,1.22-.4,2.53,2.17,7.27,6.73a26.62,26.62,0,0,0,15.15,7.4l3.12,5.2C177.81,293.58,182,303.2,181.19,315.57Z"/><path class="cls-16" d="M171.39,362.61c-1.21,4.94,1.39-5.16,0,0-2.26,8.38-4.61,16.8-7,24.73l-.1.28c-.17.81-.44,1.66-.69,2.45-2.11,7-4.13,13.48-5.89,19C123.6,365.78,142.92,314,142.92,314Z"/><path class="cls-21" d="M123.67,299.38s18.68,66.81,33.58,80.3c7.73,7,50.54,35.56,54.06,26.45,0,0,5.29-6.47,2.36-10.29,0,0-36-25.88-38.79-27.62-4.88-3,1.13-63.69-11.65-74.14S130.8,280.93,123.67,299.38Z"/><path class="cls-17" d="M174.19,240.11s2.75-4.55,10.07-5.29c0,0-21.53.46-22.43,7.07s-1.13,7.67-1.13,7.67S172.08,250,174.19,240.11Z"/></g><path class="cls-22" d="M1055.93,622.38c-.34,4.26-6.35,4.26-13.16,3.42s-27.37-2.16-27.82-3.52,4.2-2.2,9.12-3.36l1.87-.45a25.14,25.14,0,0,0,14-9.08c4.14-5.31,7.92-29.47,7.92-29.47l14.92,2.79s-8.68,20.7-9.57,27.49c-.4,3,1.77,5.08,2.27,7.75A16.49,16.49,0,0,1,1055.93,622.38Z"/><path class="cls-23" d="M1055.93,622.38c-.34,4.26-6.35,4.26-13.16,3.42-4.67-.58-5.29.06-8.29.54h-12c-5.21-.9-7.21-3-7.55-4.07s4.2-2.19,9.12-3.35l.06.09a26.78,26.78,0,0,0,14,2.61c6.41-.6,13-3.22,17.39-3.67A16.87,16.87,0,0,1,1055.93,622.38Z"/><path class="cls-24" d="M1042.59,597.32a24.23,24.23,0,0,0,7.59,3.25c5.51,1,8.06-.11,8.06-.11s26.51-66.54,25-89c0-.54-.06-1.12-.07-1.72a94.66,94.66,0,0,1,1.49-15.09c.36-2.19.77-4.49,1.22-6.87,1.07-5.54,2.38-11.53,3.83-17.62.63-2.69,1.3-5.4,2-8.1,6.66-26.61,14.81-52.83,14.81-52.83s-47.83-15.63-50.54-1c-1,5.6-4.49,28-2.94,62.31a493.21,493.21,0,0,1-1.94,74.11A406.66,406.66,0,0,1,1042.59,597.32Z"/><path class="cls-25" d="M1083.17,509.71a94.66,94.66,0,0,1,1.49-15.09c.36-2.19.77-4.49,1.22-6.87,1.07-5.54,2.38-11.53,3.83-17.62.63-2.69,1.3-5.4,2-8.1-.94-8.12-1.7-13.69-1.7-13.69S1070.12,475.31,1083.17,509.71Z"/><path class="cls-22" d="M1116.27,622.38c-.34,4.26-6.35,4.26-13.16,3.42s-27.37-2.16-27.83-3.52,4.21-2.2,9.13-3.36l1.87-.45c5.55-1.37,9.26-5.49,14-9.08,4.52-3.4,1.35-19.89,1.35-19.89l14-5s-2.11,16.59-2.11,25.71c0,3.08,1.76,5.08,2.27,7.75A16.91,16.91,0,0,1,1116.27,622.38Z"/><path class="cls-23" d="M1116.27,622.38c-.34,4.26-6.35,4.26-13.16,3.42-4.67-.58-5.29.06-8.3.54h-12c-5.21-.9-7.21-3-7.56-4.07s4.2-2.19,9.13-3.35l.06.09a26.78,26.78,0,0,0,14,2.61c6.41-.6,13-3.22,17.39-3.67A16.87,16.87,0,0,1,1116.27,622.38Z"/><path class="cls-24" d="M1077.68,404s15.56,77.55,18.19,119.76,5.91,77.16,5.91,77.16a20.63,20.63,0,0,0,7.29,1,26.65,26.65,0,0,0,7.37-1.5s15.43-63.51,10.32-88.93-.86-48.87,1.6-70c3.51-30.23-10-44.29-19.46-53.87S1077.68,404,1077.68,404Z"/><path class="cls-26" d="M1066.65,262c-1.55-12.63,2.39-32.84,27.6-29.61s33.14,28,28.06,39,7.31,13.67,11.21,25.51c3.34,10.17,4.5,22.81,9.92,28.47,17.44,18.28-16.75,46.39-37.37,40.46-37.55-10.8-42.38-12.41-41-41.91.68-15.11,12.44-21,5-25.34C1052,288,1070.15,290.52,1066.65,262Z"/><path class="cls-27" d="M1074.28,302.49l7.45,11.18,15-.73,6.94-17.94s-2.14-.4-3.14-22.77L1081.8,278a36.45,36.45,0,0,1-.33,12.18C1080.55,294.56,1078.52,299.28,1074.28,302.49Z"/><path class="cls-27" d="M1072.19,294.6c1,0,18.62-5.9,43.84,4.37,0,0-12,68.48-6.83,81.55a137.93,137.93,0,0,1,7.09,24.67l-55.78.7s.78-44.87-1.79-60.75S1072.19,294.6,1072.19,294.6Z"/><path class="cls-28" d="M1116,375.18a22.53,22.53,0,0,1-.64-3.46,53.18,53.18,0,0,1,2.59-21.62v0c0-.11.07-.21.1-.32s.13-.44.21-.78a0,0,0,0,0,0,0c.08-.31.17-.69.27-1.12q0-.21.09-.45c1.44-6.43,4.59-22.58,5.42-24.79a21.92,21.92,0,0,0,.86-3.52c.84-4.86,1.21-12.6-1.63-15.83-4-4.5-17.5-7.73-17.5-7.73-2.75,4.32-12.08,14.88-23.79,12.95-6.77-1.12-7.82-14.29-7.82-14.29-7.27,1-9.13,2.1-9.13,2.1s-17.44,10.89-42.07,45.53c-.79,1.1-2.65,1-7.19.09-5.8-1.13-17.62-1-35.45-3.6,0,0-.61.45-.78,2.4a29.23,29.23,0,0,1-.8,5.58,223.42,223.42,0,0,0,24.23,9.49c4.42,1.4,9,2.71,13.45,3.69a68.68,68.68,0,0,0,11.44,1.72s14.23-5.47,28-20.67c.8,12.76,2.58,29.23,1.49,41.27-.62,6.85-5.31,29.89-4.13,33.73,2.45,8,21.27,8.4,38.07,7.57l1.1-.07c2.6-.15,5.16-.37,7.55-.64a104.27,104.27,0,0,0,11-1.74,52.69,52.69,0,0,0,10.74-3.45c2.57-1.24,4.68-2.79,5.61-4.76C1125.65,403.72,1117.86,384.78,1116,375.18Z"/><path class="cls-29" d="M1079.38,397.31c3.18,10.8,5,19.69,13,25.69,2.6-.15,5.16-.37,7.55-.64a104.27,104.27,0,0,0,11-1.74,52.69,52.69,0,0,0,10.74-3.45c2.57-1.24,4.68-2.79,5.61-4.76-1.61-8.69-9.4-27.63-11.27-37.23a21.65,21.65,0,0,1-.37-2.52,62.47,62.47,0,0,1,2.32-22.56v0c.11-.37.21-.73.31-1.1a0,0,0,0,0,0,0c.07-.23.16-.62.27-1.12q0-.21.09-.45c1.29-6.1,4.64-25.21,5.5-27.71a26.2,26.2,0,0,0,.84-3.8l-6.72-6.47s-38.53,16.46-47,39.15S1074.81,381.82,1079.38,397.31Z"/><path class="cls-29" d="M1003,355.76c8.53,2.7,17.82,5.07,24.89,5.41,0,0,14.42-5.54,28.3-21,.58-2.62,1.15-7-2-5.75-4.46,1.78-20.93,22.94-27.17,23.38C1022.5,358.15,1009.82,356.64,1003,355.76Z"/><path class="cls-28" d="M1033.41,349.73s19,9.54,35.46,13.49a73.2,73.2,0,0,0,13.2,2.12s18.08-5.18,31.23-24.38c24.3-35.49,6-40.51,6-40.51s-17.44,10.88-42.08,45.52c-.86,1.22-3,.94-8.63-.19-6-1.21-17.89-1.07-34.34-3.48a9,9,0,0,0-.44,2.56C1033.39,349.17,1033.41,349.73,1033.41,349.73Z"/><path class="cls-30" d="M1081.47,290.13c7.75-.63,19.08-17.9,19.08-17.9L1081.8,278A36.45,36.45,0,0,1,1081.47,290.13Z"/><path class="cls-27" d="M1076.89,279.22s22.45,4.51,25-9.51,7.24-22.89-7-26.36-18,1.37-20,5.84S1071.12,277.69,1076.89,279.22Z"/><path class="cls-26" d="M1087.86,239.85s-.39,4.76,7,12.83,5.63,22.46,5.63,22.46,12.44-23.39,5.8-30.86S1087.86,239.85,1087.86,239.85Z"/><path class="cls-26" d="M1096.89,233.66s-11.16-3.73-22.23,7.18c-4.77,4.7-4.05,13.94-1.5,19.31,0,0,3.93-11.49,11.07-14S1096.89,233.66,1096.89,233.66Z"/><path class="cls-31" d="M1083.89,272.32s-.6,1.67-4.83.91c0,0-3.55-.63-3.22-2.5A11.57,11.57,0,0,1,1083.89,272.32Z"/><polygon class="cls-32" points="1008.44 310 960.64 311.07 971.61 377.48 1019.99 379.05 1008.44 310"/><path class="cls-22" d="M1068.87,363.22a19.41,19.41,0,0,1-.33-17.44c-6-1.21-18-1.73-34.42-4.15v0a36.79,36.79,0,0,1-6.73-2.45c-4-2-14.72-3.34-17-1.2s2.4,10.83,12.17,11.1a49.31,49.31,0,0,1,10.53,1.18C1034.71,351,1053.14,359.45,1068.87,363.22Z"/><rect class="cls-5" x="793.32" y="504.75" width="122.97" height="122.97"/><rect class="cls-6" x="831.24" y="504.75" width="122.97" height="122.97"/><polygon class="cls-7" points="831.24 504.75 793.32 527.73 793.32 504.75 831.24 504.75"/><rect class="cls-5" x="650.55" y="504.75" width="122.97" height="122.97"/><rect class="cls-6" x="688.46" y="504.75" width="122.97" height="122.97"/><polygon class="cls-7" points="688.46 504.75 650.55 527.73 650.55 504.75 688.46 504.75"/><polygon class="cls-8" points="712.14 576.57 664.47 576.57 666.47 571 664.47 564.98 711.69 564.98 708.8 571.22 712.14 576.57"/><polygon class="cls-7" points="688.3 564.98 688.3 576.57 664.47 576.57 666.47 571 664.47 564.98 688.3 564.98"/><rect class="cls-9" x="750.53" y="529.8" width="94.36" height="94.36"/><rect class="cls-10" x="779.63" y="529.8" width="94.36" height="94.36"/><rect class="cls-11" x="844.5" y="537.62" width="23.05" height="11.71" transform="translate(-89.86 178.17) rotate(-11.29)"/><polygon class="cls-11" points="792.16 544.74 766.58 544.74 767.66 541.76 766.58 538.53 791.92 538.53 790.37 541.88 792.16 544.74"/><polygon class="cls-12" points="779.37 538.53 779.37 544.74 766.58 544.74 767.66 541.76 766.58 538.53 779.37 538.53"/><polygon class="cls-11" points="792.16 615.03 766.58 615.03 767.66 612.04 766.58 608.82 791.92 608.82 790.37 612.16 792.16 615.03"/><polygon class="cls-12" points="779.37 608.82 779.37 615.03 766.58 615.03 767.66 612.04 766.58 608.82 779.37 608.82"/><rect class="cls-5" x="661.23" y="408.75" width="97.05" height="97.05"/><rect class="cls-6" x="691.15" y="408.75" width="97.05" height="97.05"/><polygon class="cls-7" points="691.15 408.75 661.23 426.89 661.23 408.75 691.15 408.75"/><rect class="cls-5" x="680.55" y="341.8" width="67" height="67"/><rect class="cls-6" x="701.21" y="341.8" width="67" height="67"/><polygon class="cls-7" points="701.21 341.8 680.55 354.32 680.55 341.8 701.21 341.8"/><polygon class="cls-8" points="714.11 380.93 688.13 380.93 689.22 377.89 688.13 374.62 713.86 374.62 712.28 378.02 714.11 380.93"/><polygon class="cls-7" points="701.12 374.62 701.12 380.93 688.13 380.93 689.22 377.89 688.13 374.62 701.12 374.62"/><rect class="cls-5" x="785.1" y="427.01" width="78.15" height="78.15"/><rect class="cls-6" x="809.19" y="427.01" width="78.15" height="78.15"/><polygon class="cls-7" points="809.19 427.01 785.1 441.62 785.1 427.01 809.19 427.01"/><polygon class="cls-8" points="824.24 472.65 793.94 472.65 795.22 469.12 793.94 465.29 823.95 465.29 822.11 469.26 824.24 472.65"/><polygon class="cls-7" points="809.09 465.29 809.09 472.65 793.94 472.65 795.22 469.12 793.94 465.29 809.09 465.29"/><circle class="cls-33" cx="768.61" cy="103.3" r="84.5"/><path class="cls-34" d="M1003.11,118.8c-121.91-17.48-203.89.48-257,21-29.23,11.29-75.85,33.45-138,28-46.94-4.12-42.55-22.82-94-29-26-3.12-69,1.54-154,11-14.68,1.63-26.81,3-35,4"/></g></g></svg>