<svg xmlns="http://www.w3.org/2000/svg" xmlns:xlink="http://www.w3.org/1999/xlink" viewBox="0 0 2190.18 1118.9"><defs><style>.cls-1{fill:#a76337;}.cls-2{fill:#fcf9d3;}.cls-3{fill:url(#linear-gradient);}.cls-4{fill:#d66827;}.cls-5{fill:#efa250;}.cls-6{fill:#c75e28;}.cls-7{fill:#fdd4aa;}.cls-8{fill:#f58a4b;}.cls-9{fill:#f6d072;}.cls-10{fill:#ebf1f9;}.cls-11{fill:#a9c4e6;}.cls-12{fill:#1b4788;}.cls-13{fill:#7199d0;}.cls-14{fill:#9d6138;}.cls-15{fill:#8c8e90;}.cls-16{fill:#233862;}.cls-17{fill:#231f20;}.cls-18{fill:#aa7040;}.cls-19{fill:#9b5f32;}.cls-20{fill:#6a6c6e;}.cls-21{fill:#b67446;}.cls-22{fill:#365da3;}.cls-23{fill:#e9e0b5;}.cls-24{fill:#d0c38e;}.cls-25{fill:#aa453f;}.cls-26{fill:#d8925c;}.cls-27{fill:#f6954b;}.cls-28{fill:#fabd4a;}.cls-29{fill:#cb7c45;}.cls-30{fill:#fff;}.cls-31{fill:#44449b;}.cls-32{fill:#fde363;}.cls-33{fill:#f79f62;}.cls-34,.cls-35{fill:#f5c315;}.cls-35,.cls-44{opacity:0.3;}.cls-36{fill:#661718;}.cls-37{fill:#f6955e;}.cls-38{fill:#221f1f;}.cls-39{fill:#a1c1dc;}.cls-40{fill:#f05722;}.cls-41{fill:#f47f20;}.cls-42{fill:#c4d8eb;}.cls-43{fill:#a7302d;}.cls-44{fill:#8d2322;}.cls-45{fill:#631918;}.cls-46{fill:#821818;}.cls-47{fill:#87888b;}.cls-48{fill:#7d7e81;}</style><linearGradient id="linear-gradient" x1="1058.65" y1="1861.73" x2="1081.09" y2="-343.94" gradientUnits="userSpaceOnUse"><stop offset="0.29" stop-color="#fcf9d3"/><stop offset="0.34" stop-color="#fcf2cd"/><stop offset="0.41" stop-color="#fae0bd"/><stop offset="0.48" stop-color="#f8c2a2"/><stop offset="0.57" stop-color="#f5987d"/><stop offset="0.64" stop-color="#f2745d"/></linearGradient></defs><title>Asset 21</title><g id="Layer_2" data-name="Layer 2"><g id="Layer_1-2" data-name="Layer 1"><path class="cls-1" d="M1826,603.1c-10.16-2-31.77-2.13-62.88-6.64a54,54,0,0,1-7.72-3.06c-6.66-3.33-24.44-5.55-28.22-2s4,18,20.22,18.44a104.86,104.86,0,0,1,13.09,1.08,393.63,393.63,0,0,0,42.83,16.76c7.84,2.49,16,4.81,23.84,6.56C1830.26,620.28,1828.09,609.4,1826,603.1Z"/><path class="cls-2" d="M2118,992c-26.38,44-55.67,83.37-79.75,115.76q-1.54,2.09-3.09,4.14c-.76,1-1.5,2-2.27,3H34.11c0-1-.07-2-.1-3,0-1.39,0-2.77,0-4.14-.09-34.41,8.52-68.06,22.73-104.53,12-31,28.05-63.94,46.13-101.14,42.29-87,63.88-96.37,111.33-187.94,38.56-74.45,55.25-128,81.65-207.45,82-246.77,123-370.14,142.87-393.62,175.46-207.43,685.63-68.83,734.83-55,263.6,74.32,202.11,151.27,705.12,402.48,163.43,81.61,251,115,291.33,211C2217.24,784.17,2174.09,898.55,2118,992Z"/><path class="cls-3" d="M2109,989c-26.38,44-55.67,83.37-79.75,115.76q-1.54,2.08-3.09,4.13H25c0-1.38-.05-2.76-.05-4.13-.09-34.41,8.52-68.07,22.73-104.54h74.53V979.34h12.84v-125H208.8V904h49.7v20.84H289V904h17.63V888h32.05v20.85h16.05V989h16v17.64h16V989l11.7-11.7V908.81h46V830.24h14.43V762.92h25.64v-54.5h24v56.1H523V746.89h12.82v19.24h24.06v16h24v85h19.24v51.3h24v30.46h22.45v-133h6.4V790.17h9.62V724.45H678.5v60.92h17.64v27.25H728.2v14.43h16V787h46.49v43.28h30.46v78.39h27.25V726.06H911V708.42h12.84v14.43h20.83v49.68h11.22v101h20.84v11.21h41.68v12.83h41.69V961.7h112.21v12.83h33.66V955.3h36.88v48.08h70.53V920H1331V897.58h49.68v17.63h24.06v41.68h62.52v17.64h30.46V997h14.43V1029H1541v-22.45h20.83v-54.5h40.09V745.28h94.58V883.15h20.85v149.1h38.47V761.32h16V597.8h32.06V564.14h8V593h22.45V581.77H1852V697.19h28.87v333.44h20.83V881.56l8.81-8.83V745.28h32.88V722.85h30.46v22.43h27.25V711.63h32.06v202H2054v73.74h19.22V969.73h25.65V989Z"/><rect class="cls-4" x="1624.54" y="961.31" width="107.53" height="107.52"/><rect class="cls-5" x="1657.7" y="961.31" width="107.53" height="107.52"/><polygon class="cls-6" points="1657.7 961.31 1624.54 981.41 1624.54 961.31 1657.7 961.31"/><polygon class="cls-7" points="1678.4 1024.11 1636.71 1024.11 1638.47 1019.24 1636.71 1013.98 1678.01 1013.98 1675.48 1019.43 1678.4 1024.11"/><polygon class="cls-6" points="1657.56 1013.98 1657.56 1024.11 1636.71 1024.11 1638.47 1019.24 1636.71 1013.98 1657.56 1013.98"/><rect class="cls-8" x="1715.95" y="983.29" width="85.54" height="85.54"/><rect class="cls-9" x="1742.33" y="983.29" width="85.54" height="85.54"/><rect class="cls-10" x="1801.13" y="990.38" width="20.9" height="10.62" transform="translate(-159.92 374.06) rotate(-11.29)"/><polygon class="cls-10" points="1753.69 996.84 1730.5 996.84 1731.48 994.13 1730.5 991.21 1753.47 991.21 1752.06 994.24 1753.69 996.84"/><polygon class="cls-11" points="1742.09 991.21 1742.09 996.84 1730.5 996.84 1731.48 994.13 1730.5 991.21 1742.09 991.21"/><polygon class="cls-10" points="1753.69 1060.56 1730.5 1060.56 1731.48 1057.85 1730.5 1054.92 1753.47 1054.92 1752.06 1057.96 1753.69 1060.56"/><polygon class="cls-11" points="1742.09 1054.92 1742.09 1060.56 1730.5 1060.56 1731.48 1057.85 1730.5 1054.92 1742.09 1054.92"/><path class="cls-12" d="M1595.17,1087.51a11.75,11.75,0,1,0,11.74,11.75A11.75,11.75,0,0,0,1595.17,1087.51Z"/><path class="cls-13" d="M1595.17,1091.62a7.54,7.54,0,1,0,7.54,7.53A7.53,7.53,0,0,0,1595.17,1091.62Z"/><path class="cls-12" d="M1831.53,1087.51a11.75,11.75,0,1,0,11.74,11.75A11.74,11.74,0,0,0,1831.53,1087.51Z"/><path class="cls-13" d="M1831.53,1091.62a7.54,7.54,0,1,0,7.54,7.53A7.54,7.54,0,0,0,1831.53,1091.62Z"/><path class="cls-12" d="M1856,1068.83H1615.78L1519.89,807a6.23,6.23,0,0,0-5.58-4.08l-32-1.31a6.22,6.22,0,1,0-.52,12.43l27.82,1.15,92.89,253.69h-20.89a6,6,0,0,0-6,6V1082a6,6,0,0,0,6,6H1856a6,6,0,0,0,6-6v-7.18A6,6,0,0,0,1856,1068.83Z"/><path class="cls-14" d="M1478.1,782.5s12,7.88,21.17,8.23,14.7,9.57,16,13.41-2.39,9.73-5.23,6.24c-4.29-5.28-13-1.16-21.42-8.07S1467.73,791,1467.73,791Z"/><path class="cls-15" d="M1371.4,653s25.7,91.92,46.2,110.49c10.64,9.63,69.53,48.91,74.39,36.38,0,0,7.27-8.89,3.23-14.15,0,0-49.51-35.61-53.36-38-6.72-4.17,1.55-87.64-16-102S1381.21,627.64,1371.4,653Z"/><path class="cls-16" d="M1475.15,1110.79l-5.06.16h-48.53a8.74,8.74,0,0,1-2.31-.48c-4.36-2.07-2.34-21.3-2.34-21.3s18.87-15.73,21.74-4,18.57,16.67,27.47,17.93S1475.15,1110.79,1475.15,1110.79Z"/><path class="cls-17" d="M1321.84,872.89c9.34,19.06,31.49,45.6,39.65,66.17a37.48,37.48,0,0,1,3.1,13.41c.2,46.15,50.3,137.17,50.3,137.17,4.78,3.09,25.17-3.1,25.17-3.1s-2.36-20.23-14.07-90.11c-6.45-38.55-17.34-95.95-25.8-139.67-2.18-11.26-4.2-21.62-5.94-30.51-3.76-19.18-6.22-31.55-6.22-31.55l-19.43.32-52.47.87S1294.35,816.77,1321.84,872.89Z"/><path class="cls-17" d="M1321.84,872.89c9.34,19.06,31.49,45.6,39.65,66.17,11.58-24.49,29.14-61.73,38.7-82.3-2.18-11.26-4.2-21.62-5.94-30.51C1386.7,817,1377,805.16,1368.6,795l-52.47.87S1294.35,816.77,1321.84,872.89Z"/><path class="cls-16" d="M1258.35,1111H1232c-2.45-1.91-4.55-5.24-5.44-9.87-1.53-7.87-10.57-11.81-12.76-18.2s7.27-15.9,7.27-15.9l3.17-4.46,16.46,3.17a155,155,0,0,1,1.55,20.09c-.12,8.65,3.15,17.82,10.89,19.18C1258.81,1106,1258.78,1109.23,1258.35,1111Z"/><path class="cls-17" d="M1331,986.66c-9.86,17.91-82.6,101-82.6,101s-22.92-7.74-27-21.67c0,0,43-70.69,62.59-100.81,5.59-8.62,8.7-140.29,28.64-164.28,25-30.09,70.24,27,70.24,27s-14.16,46-18.56,60.55C1354.58,920.65,1337.83,974.32,1331,986.66Z"/><path class="cls-18" d="M1471.22,789.37s12,7.88,21.18,8.24,14.69,9.57,16,13.4-2.39,9.74-5.23,6.24c-4.29-5.28-13.05-1.16-21.42-8.07s-20.85-11.35-20.85-11.35Z"/><path class="cls-19" d="M1427.74,636.25A155.14,155.14,0,0,0,1438,616.69l-17-29.74c-9.88,27.85-32.68,34.15-32.68,34.15s26.66,29.25,48.13,30.73A49.06,49.06,0,0,0,1427.74,636.25Z"/><path class="cls-18" d="M1444,618.53s-33.61-7.15-28.84-28,3.66-35.84,25.32-32.15,24,12.59,24.1,19.95S1452.9,619.85,1444,618.53Z"/><path class="cls-16" d="M1414.87,592s11-26.14,41.41-19.08c20.84,4.84,15.37-16.3,14.15-19.79,0,0-16.19-3.05-32.92-5.72C1402.38,541.76,1413,586.69,1414.87,592Z"/><path class="cls-15" d="M1443.06,682.78c-.66,10.43-3.81,26.24-8.08,43.77-1.66,6.8-3.49,13.85-5.4,21-3.11,11.52-6.35,23.11-9.7,34l-.12.39c-.24,1.11-.62,2.29-1,3.37-2.9,9.63-5.68,18.55-8.1,26.12-4.63,14.48-4.67,22.54-8.37,24.18-7.43,3.29-36.7-.24-54.24-7.84-14.82-6.31-37.41-25.34-37.29-34.92.13-11.1,15-44.53,24.91-83.55,12.18-47.68,39.21-85.75,61.75-93.6,1.68-.54,3.48,3,10,9.27a36.6,36.6,0,0,0,20.83,10.17l4.3,7.16C1438.41,652.52,1444.14,665.76,1443.06,682.78Z"/><path class="cls-20" d="M1429.58,747.5c-1.66,6.79,1.91-7.1,0,0-3.11,11.52-6.35,23.11-9.7,34l-.12.39c-.24,1.11-.62,2.29-1,3.37-2.9,9.63-5.68,18.55-8.1,26.12-46.87-59.55-20.29-130.85-20.29-130.85Z"/><path class="cls-15" d="M1363.92,660.5s25.7,91.92,46.2,110.48c10.64,9.63,69.53,48.92,74.39,36.39,0,0,7.27-8.89,3.23-14.15,0,0-49.51-35.61-53.36-38-6.72-4.17,1.55-87.64-16-102S1373.73,635.11,1363.92,660.5Z"/><path class="cls-16" d="M1433.43,579s3.78-6.26,13.86-7.27c0,0-29.63.62-30.86,9.73s-1.56,10.54-1.56,10.54S1430.52,592.59,1433.43,579Z"/><path class="cls-21" d="M1852.37,1099.63c-.52,6.5-9.69,6.5-20.09,5.22s-41.77-3.3-42.46-5.38c-.61-1.86,6.41-3.36,13.93-5.13l2.85-.68A38.27,38.27,0,0,0,1828,1079.8c6.32-8.1,12.1-45,12.1-45l22.76,4.25s-13.25,31.6-14.61,42c-.61,4.65,2.7,7.76,3.47,11.83A25.15,25.15,0,0,1,1852.37,1099.63Z"/><path class="cls-22" d="M1852.37,1099.63c-.52,6.49-9.69,6.5-20.08,5.22-7.13-.89-8.08.08-12.66.81h-18.28c-7.95-1.37-11-4.59-11.53-6.2-.61-1.84,6.41-3.35,13.94-5.12l.08.14a40.92,40.92,0,0,0,21.35,4c9.79-.92,19.79-4.92,26.55-5.6A25.52,25.52,0,0,1,1852.37,1099.63Z"/><path class="cls-23" d="M1832,1061.38s6,3.95,11.57,5c8.41,1.53,12.31-.16,12.31-.16S1896.35,964.62,1894,930.3c0-.83-.08-1.7-.09-2.63-.07-6,.79-13.89,2.26-23,.55-3.34,1.18-6.85,1.87-10.48,1.63-8.46,3.63-17.59,5.84-26.9,1-4.09,2-8.23,3-12.36,10.17-40.6,22.6-80.62,22.6-80.62s-73-23.84-77.12-1.56c-1.59,8.55-6.86,42.77-4.49,95.1a754.23,754.23,0,0,1-3,113.11A624.71,624.71,0,0,1,1832,1061.38Z"/><path class="cls-24" d="M1894,927.67c-.07-6,.79-13.89,2.26-23,.55-3.34,1.18-6.85,1.87-10.48,1.63-8.46,3.63-17.59,5.84-26.9,1-4.09,2-8.23,3-12.36-1.44-12.39-2.6-20.89-2.6-20.89S1874,875.17,1894,927.67Z"/><path class="cls-21" d="M1944.46,1099.63c-.53,6.5-9.7,6.5-20.09,5.22s-41.77-3.3-42.46-5.38c-.62-1.86,6.41-3.36,13.93-5.13l2.84-.68c8.48-2.09,14.13-8.38,21.42-13.86,6.89-5.19,2.07-30.36,2.07-30.36l21.4-7.64s-3.22,25.31-3.22,39.24c0,4.69,2.69,7.76,3.47,11.83A25.56,25.56,0,0,1,1944.46,1099.63Z"/><path class="cls-22" d="M1944.46,1099.63c-.53,6.49-9.7,6.5-20.09,5.22-7.12-.89-8.08.08-12.66.81h-18.27c-8-1.37-11-4.59-11.53-6.2-.62-1.84,6.41-3.35,13.93-5.12l.09.14a40.87,40.87,0,0,0,21.34,4c9.79-.92,19.8-4.92,26.55-5.6A26,26,0,0,1,1944.46,1099.63Z"/><path class="cls-23" d="M1885.56,766.33s23.75,118.36,27.76,182.78,9,117.75,9,117.75a31.38,31.38,0,0,0,11.13,1.53,40.88,40.88,0,0,0,11.25-2.3s23.54-96.92,15.74-135.71-1.3-74.58,2.44-106.76c5.37-46.14-15.28-67.58-29.69-82.2C1918.62,726.62,1885.56,766.33,1885.56,766.33Z"/><path class="cls-25" d="M1868.73,549.55c-2.36-19.27,3.66-50.1,42.12-45.17s50.58,42.72,42.82,59.53,11.17,20.85,17.11,38.93c5.1,15.52,6.88,34.8,15.14,43.45,26.62,27.89-25.56,70.79-57,61.74-57.3-16.47-64.68-18.93-62.64-63.95,1-23.07,19-32,7.59-38.69C1846.31,589.27,1874.07,593.16,1868.73,549.55Z"/><path class="cls-26" d="M1880.37,611.43l11.38,17.07,22.92-1.13L1925.25,600s-3.26-.62-4.78-34.75L1891.86,574a55.73,55.73,0,0,1-.51,18.59C1889.94,599.32,1886.85,606.53,1880.37,611.43Z"/><path class="cls-26" d="M1877.18,599.39c1.47,0,28.42-9,66.9,6.66,0,0-18.26,104.52-10.42,124.47a210.57,210.57,0,0,1,10.83,37.65l-85.13,1.06s1.19-68.47-2.73-92.71S1877.18,599.39,1877.18,599.39Z"/><path class="cls-27" d="M1944,722.36a34.53,34.53,0,0,1-1-5.28c-1.12-12.62.79-22.9,4-33v0l.15-.47c.09-.27.2-.68.32-1.2a.08.08,0,0,0,0,0c.13-.48.26-1.06.41-1.72q.07-.32.15-.69c2.19-9.81,7-34.46,8.27-37.82a33.09,33.09,0,0,0,1.3-5.38c1.29-7.42,1.85-19.23-2.48-24.16-6-6.87-26.7-11.8-26.7-11.8-4.21,6.59-18.44,22.71-36.31,19.77-10.34-1.71-11.93-21.81-11.93-21.81-11.1,1.53-13.94,3.21-13.94,3.21s-26.61,16.61-64.21,69.48c-1.19,1.68-4,1.49-11,.14-8.83-1.72-26.87-1.5-54.09-5.49,0,0-.94.68-1.19,3.65-.56,6.57-1.22,8.52-1.22,8.52a340.73,340.73,0,0,0,37,14.48c6.75,2.14,13.8,4.14,20.52,5.64a105,105,0,0,0,17.46,2.62s21.72-8.35,42.77-31.54c1.22,19.47,3.94,44.61,2.27,63-1,10.46-8.1,45.63-6.31,51.48,3.74,12.19,32.46,12.83,58.11,11.55.56,0,1.11-.05,1.67-.09,4-.23,7.88-.58,11.53-1a158.81,158.81,0,0,0,16.7-2.66,81.44,81.44,0,0,0,16.4-5.26c3.92-1.89,7.14-4.26,8.57-7.26C1958.77,765.92,1946.89,737,1944,722.36Z"/><path class="cls-28" d="M1888.16,756.14c4.86,16.48,7.68,30,19.88,39.21,4-.23,7.88-.58,11.53-1a158.81,158.81,0,0,0,16.7-2.66,81.44,81.44,0,0,0,16.4-5.26c3.92-1.89,7.14-4.26,8.57-7.26-2.47-13.27-14.35-42.17-17.21-56.83a34.46,34.46,0,0,1-.57-3.84,95.6,95.6,0,0,1,3.54-34.44v0c.16-.56.32-1.11.47-1.67a.08.08,0,0,0,0,0c.11-.37.24-1,.41-1.72q.07-.32.15-.69c2-9.3,7.08-38.47,8.38-42.28a37.35,37.35,0,0,0,1.28-5.81L1947.46,622s-58.8,25.11-71.76,59.75S1881.18,732.5,1888.16,756.14Z"/><path class="cls-28" d="M1771.55,692.72c13,4.13,27.19,7.75,38,8.26,0,0,22-8.45,43.19-32,.89-4,1.75-10.71-3.1-8.77-6.8,2.71-31.94,35-41.46,35.67C1801.35,696.37,1782,694.07,1771.55,692.72Z"/><path class="cls-27" d="M1818,683.52s29,14.57,54.12,20.59a113,113,0,0,0,20.14,3.24s27.6-7.91,47.66-37.21C1977,616,1949,608.31,1949,608.31s-26.61,16.61-64.21,69.48c-1.31,1.85-4.62,1.43-13.17-.3-9.13-1.84-27.31-1.62-52.41-5.31a14.32,14.32,0,0,0-.68,3.91C1818,682.66,1818,683.52,1818,683.52Z"/><path class="cls-29" d="M1891.35,592.57c11.83-1,29.12-27.32,29.12-27.32L1891.86,574A55.73,55.73,0,0,1,1891.35,592.57Z"/><path class="cls-26" d="M1884.37,575.92s34.25,6.88,38.21-14.52,11-34.93-10.67-40.22-27.47,2.08-30.53,8.9S1875.56,573.58,1884.37,575.92Z"/><path class="cls-25" d="M1901.11,515.83s-.6,7.26,10.66,19.58,8.58,34.27,8.58,34.27,19-35.69,8.86-47.08S1901.11,515.83,1901.11,515.83Z"/><path class="cls-25" d="M1914.88,506.39s-17-5.7-33.93,11c-7.28,7.18-6.18,21.28-2.28,29.47,0,0,6-17.54,16.89-21.37S1914.88,506.39,1914.88,506.39Z"/><path class="cls-30" d="M1895,565.39s-.92,2.54-7.37,1.38c0,0-5.41-1-4.91-3.81C1882.76,563,1888.28,561.53,1895,565.39Z"/><polygon class="cls-31" points="1779.89 622.88 1706.94 624.53 1723.68 725.87 1797.53 728.27 1779.89 622.88"/><path class="cls-21" d="M1872.12,704.11a29.61,29.61,0,0,1-.5-26.62c-9.13-1.84-27.44-2.64-52.54-6.33v.05a56.17,56.17,0,0,1-10.29-3.74c-6.12-3.06-22.45-5.1-25.92-1.84s3.67,16.54,18.57,17a75.31,75.31,0,0,1,16.07,1.79C1820,685.51,1848.12,698.36,1872.12,704.11Z"/><circle class="cls-32" cx="1387.74" cy="180.06" r="149.82"/><path class="cls-33" d="M1803.52,207.55c-216.15-31-361.5.86-455.67,37.23-51.82,20-134.49,59.31-244.68,49.65-83.23-7.3-75.45-40.46-166.67-51.42-46.11-5.54-122.38,2.73-273,19.5-26,2.9-47.54,5.39-62.06,7.09"/><path class="cls-34" d="M1276.83,696.59v49.92a27.93,27.93,0,0,1-28,28h-8.95a28.05,28.05,0,0,1-28-28V696.59a27.6,27.6,0,0,1,4.06-14.36v-.07a28.05,28.05,0,0,1,23.91-13.54h8.95A28.06,28.06,0,0,1,1276.83,696.59Z"/><path class="cls-35" d="M1273.9,759a28,28,0,0,1-25,15.48h-8.95a28.05,28.05,0,0,1-28-28V696.59a27.6,27.6,0,0,1,4.06-14.36C1216.54,685.32,1228.42,753.8,1273.9,759Z"/><polygon class="cls-36" points="833.47 1061.95 971.71 1061.95 971.71 922.43 827.5 922.43 833.47 1061.95"/><path class="cls-37" d="M1269.37,767,590.21,783.77V425.63h446A113.29,113.29,0,0,1,1137,487.27l29.19,57Z"/><path class="cls-38" d="M883.55,1039.25c0,37.88,19.54,79.65,19.54,79.65h33.07c29.05,0,52.61-35.66,52.61-79.65s-56.63-79.65-85.68-79.65S883.55,995.26,883.55,1039.25Z"/><ellipse class="cls-38" cx="903.09" cy="1039.25" rx="52.61" ry="79.65"/><ellipse class="cls-38" cx="903.75" cy="1039.25" rx="39.63" ry="59.99"/><path class="cls-38" d="M1263.82,1039.25c0,37.88,19.54,79.65,19.54,79.65h33.07c29.06,0,52.61-35.66,52.61-79.65s-56.63-79.65-85.68-79.65S1263.82,995.26,1263.82,1039.25Z"/><path class="cls-38" d="M1230.75,1039.25c0,44,23.55,79.65,52.61,79.65s52.61-35.66,52.61-79.65-23.56-79.65-52.61-79.65S1230.75,995.26,1230.75,1039.25Z"/><path class="cls-38" d="M1244.39,1039.25c0,33.13,17.74,60,39.63,60s39.63-26.86,39.63-60-17.74-60-39.63-60S1244.39,1006.12,1244.39,1039.25Z"/><path class="cls-38" d="M390.56,1039.25c0,37.88,19.54,79.65,19.54,79.65h33.07c29.06,0,52.61-35.66,52.61-79.65S439.15,959.6,410.1,959.6,390.56,995.26,390.56,1039.25Z"/><path class="cls-38" d="M357.49,1039.25c0,44,23.55,79.65,52.61,79.65s52.61-35.66,52.61-79.65S439.15,959.6,410.1,959.6,357.49,995.26,357.49,1039.25Z"/><path class="cls-38" d="M371.14,1039.25c0,33.13,17.74,60,39.62,60s39.63-26.86,39.63-60-17.74-60-39.63-60S371.14,1006.12,371.14,1039.25Z"/><path class="cls-34" d="M1421.42,1001.66a60.15,60.15,0,0,1-60.14,60.29H971.71a119.05,119.05,0,0,0,1.73-20.3c0-51.49-30.89-93.29-68.93-93.29s-69,41.8-69,93.29a119.11,119.11,0,0,0,1.66,20.3H609.51s-9.17-101.64-8-152.61c.9-44.35.9-131.26-1.73-152.45,0-3.16,219.51-3.54,274.92-3.76,7.52-.08,12-.08,12.48-.08l.75.52.83.61c10.22,7.14,67.51,47.28,103.07,70.81,31.35,20.68,262.74,29.1,353.48,31.65,22.55.6,36.46.83,36.46.83a163.76,163.76,0,0,1,23.38,32.78c8.42,15.56,15.94,35.56,16.09,57.43.07,13.61.15,30,.15,46.08C1421.42,996.4,1421.42,999,1421.42,1001.66Z"/><path class="cls-39" d="M1214.61,753.05H909.39A18,18,0,0,1,893,742.52L817.45,574.43A8.33,8.33,0,0,1,825,562.7h322a17.91,17.91,0,0,1,16.38,10.75l54.13,123.67,13.53,30.9A17.92,17.92,0,0,1,1214.61,753.05Z"/><path class="cls-40" d="M1072.45,993.76c-.08,5.27-.3,10.23-.6,14.67-2.18,29.24-31.58,53.52-31.58,53.52H971.71a121.58,121.58,0,0,0-8-68.19c-12.1-27.21-34.06-45.4-59.16-45.4s-47.14,18.19-59.24,45.4a122.95,122.95,0,0,0-8.12,68.19h-247V425.65H788.43V552s59.47,139.68,86.23,201.18c6.62,15.33,11.28,25.78,12.48,28,5.94,11.35,144.11,81.26,167,101.86C1066.81,894.46,1073.13,953.85,1072.45,993.76Z"/><path class="cls-39" d="M790.65,592.94l65,160.14H744.11s-22.88-3.83-25.82-50.6c-3.13-49.93-3.12-136.08-3.12-136.08l49-.24C782.79,569,785.72,579.23,790.65,592.94Z"/><polygon class="cls-41" points="1381.73 857.47 1019.98 857.47 887.89 753.58 887.14 753.05 1252.05 753.05 1355.94 836.65 1381.73 857.47"/><path class="cls-42" d="M1405.11,890.25c-2.11,3.46-4.81,5.71-7.74,6.24l-50.75,9.39c-4.28.83-7.59-6.61-6.46-14.28l5-34.13.15-.83,1-7c.9-6,3.53-10.6,6.76-11.88l2.93-1.12,25.79,20.82A163.76,163.76,0,0,1,1405.11,890.25Z"/><path class="cls-43" d="M1066.81,918.52l-32.7-3.24a25.62,25.62,0,0,1-22.7-21L1003.89,853a5.62,5.62,0,0,1-.15-2c23.3,13.38,42.92,25.33,50.37,32C1059.52,887.92,1063.8,901.45,1066.81,918.52Z"/><path class="cls-42" d="M1128.91,924.68l-62-6.16h-.08l-32.7-3.24a25.62,25.62,0,0,1-22.7-21L1003.89,853a5.62,5.62,0,0,1-.15-2v-.08a13.75,13.75,0,0,1,16.54-14l96.6,19.62a16.62,16.62,0,0,1,12.7,11.88l11.36,41.95A11.32,11.32,0,0,1,1128.91,924.68Z"/><path class="cls-41" d="M1166.25,544.23H789.38a218.26,218.26,0,0,0-10.91-51.66c-8.42-24.32-23-51.45-48.44-66.93h308c50.2,0,94.68,26.81,112.35,66.93a52.48,52.48,0,0,1,2.18,5A314.14,314.14,0,0,1,1166.25,544.23Z"/><path class="cls-39" d="M1066.89,918.52l-32.78-3.24a25.62,25.62,0,0,1-22.7-21L1003.89,853a6.06,6.06,0,0,1-.15-2c23.3,13.46,42.92,25.41,50.37,32.1C1059.52,887.92,1063.8,901.45,1066.89,918.52Z"/><path class="cls-41" d="M1421.42,1001.66c.08,33.3-28.19,60.29-63.07,60.29H971.71a121.58,121.58,0,0,0-8-68.19h457.68C1421.42,996.4,1421.42,999,1421.42,1001.66Z"/><path class="cls-41" d="M835.49,1041.65a119.11,119.11,0,0,0,1.66,20.3h-247V993.76H845.27A119.12,119.12,0,0,0,835.49,1041.65Z"/><path class="cls-44" d="M1166.73,860.41h147.93c4.72,0,8.34,6.37,7.62,13.44L1317,925.26c-.78,7.56-5.08,13.14-10.14,13.14H1185c-7.82,0-14.71-7.73-17-19l-8.77-43.71C1157.73,868.06,1161.49,860.41,1166.73,860.41Z"/><path class="cls-42" d="M1217.54,697.12C1043.06,688.17,925,594.8,889.39,562.7H1147a17.91,17.91,0,0,1,16.38,10.75Z"/><rect class="cls-40" y="425.63" width="659.98" height="636.36"/><path class="cls-45" d="M822.58,670.85s5.64,64.72-26.31,82.45H856Z"/><path class="cls-45" d="M831.35,714.16s-13.48-9.59-14.64-17.54v45.27h17.64Z"/><path class="cls-34" d="M816.7,696.59v49.92a27.93,27.93,0,0,1-28,28h-8.94a28.05,28.05,0,0,1-28-28V696.59a27.51,27.51,0,0,1,4.06-14.36v-.07a28,28,0,0,1,23.91-13.54h8.94A28.07,28.07,0,0,1,816.7,696.59Z"/><path class="cls-35" d="M813.77,759a28.06,28.06,0,0,1-25,15.48h-8.94a28.05,28.05,0,0,1-28-28V696.59a27.51,27.51,0,0,1,4.06-14.36C756.41,685.32,768.28,753.8,813.77,759Z"/><path class="cls-46" d="M215.56,1062H53.21c-3.43-14.66-13.75-119,77.23-119C213.12,943,219.2,1038.19,215.56,1062Z"/><path class="cls-38" d="M104,1039.25c0,37.88,19.54,79.65,19.54,79.65h33.07c29.06,0,52.61-35.66,52.61-79.65s-56.62-79.65-85.68-79.65S104,995.26,104,1039.25Z"/><path class="cls-38" d="M71,1039.25c0,44,23.56,79.65,52.61,79.65s52.61-35.66,52.61-79.65-23.55-79.65-52.61-79.65S71,995.26,71,1039.25Z"/><path class="cls-38" d="M84.61,1039.25c0,33.13,17.74,60,39.62,60s39.63-26.86,39.63-60-17.74-60-39.63-60S84.61,1006.12,84.61,1039.25Z"/><path class="cls-40" d="M1166.25,544.23H789.38a218.26,218.26,0,0,0-10.91-51.66h371.87a52.48,52.48,0,0,1,2.18,5A314.14,314.14,0,0,1,1166.25,544.23Z"/><rect class="cls-4" x="330.53" y="895.63" width="218.04" height="218.04"/><rect class="cls-5" x="397.76" y="895.63" width="218.03" height="218.04"/><polygon class="cls-6" points="397.76 895.63 330.53 936.38 330.53 895.63 397.76 895.63"/><rect class="cls-4" x="77.39" y="895.63" width="218.04" height="218.04"/><rect class="cls-5" x="144.61" y="895.63" width="218.04" height="218.04"/><polygon class="cls-6" points="144.61 895.63 77.39 936.38 77.39 895.63 144.61 895.63"/><polygon class="cls-7" points="186.59 1022.96 102.07 1022.96 105.62 1013.09 102.07 1002.42 185.8 1002.42 180.66 1013.49 186.59 1022.96"/><polygon class="cls-6" points="144.33 1002.42 144.33 1022.96 102.07 1022.96 105.62 1013.09 102.07 1002.42 144.33 1002.42"/><rect class="cls-8" x="254.67" y="940.05" width="167.31" height="167.31"/><rect class="cls-9" x="306.26" y="940.05" width="167.31" height="167.31"/><rect class="cls-10" x="421.27" y="953.91" width="40.87" height="20.77" transform="translate(-180.29 105.18) rotate(-11.29)"/><polygon class="cls-10" points="328.47 966.54 283.12 966.54 285.03 961.24 283.12 955.52 328.05 955.52 325.29 961.46 328.47 966.54"/><polygon class="cls-11" points="305.8 955.52 305.8 966.54 283.12 966.54 285.03 961.24 283.12 955.52 305.8 955.52"/><polygon class="cls-10" points="328.47 1091.17 283.12 1091.17 285.03 1085.87 283.12 1080.15 328.05 1080.15 325.29 1086.08 328.47 1091.17"/><polygon class="cls-11" points="305.8 1080.15 305.8 1091.17 283.12 1091.17 285.03 1085.87 283.12 1080.15 305.8 1080.15"/><rect class="cls-4" x="96.33" y="725.41" width="172.08" height="172.08"/><rect class="cls-5" x="149.38" y="725.41" width="172.08" height="172.08"/><polygon class="cls-6" points="149.38 725.41 96.33 757.58 96.33 725.41 149.38 725.41"/><rect class="cls-4" x="130.58" y="606.71" width="118.79" height="118.79"/><rect class="cls-5" x="167.21" y="606.71" width="118.79" height="118.79"/><polygon class="cls-6" points="167.21 606.71 130.58 628.92 130.58 606.71 167.21 606.71"/><polygon class="cls-7" points="190.08 676.09 144.02 676.09 145.96 670.71 144.02 664.9 189.65 664.9 186.85 670.92 190.08 676.09"/><polygon class="cls-6" points="167.05 664.9 167.05 676.09 144.02 676.09 145.96 670.71 144.02 664.9 167.05 664.9"/><rect class="cls-4" x="315.95" y="757.8" width="138.57" height="138.57"/><rect class="cls-5" x="358.67" y="757.8" width="138.57" height="138.57"/><polygon class="cls-6" points="358.67 757.8 315.95 783.7 315.95 757.8 358.67 757.8"/><polygon class="cls-7" points="385.35 838.72 331.63 838.72 333.89 832.45 331.63 825.67 384.85 825.67 381.58 832.7 385.35 838.72"/><polygon class="cls-6" points="358.49 825.67 358.49 838.72 331.63 838.72 333.89 832.45 331.63 825.67 358.49 825.67"/><path class="cls-47" d="M1496.51,574.36c-.9,5.17-19.72,6.19-42,2.28-2.87-.5-5.66-1.06-8.34-1.68,13.56,1,24.91-4.17,26.37-12.52a10.37,10.37,0,0,0,.14-1.22C1487.28,565.2,1497.21,570.42,1496.51,574.36Z"/><path class="cls-48" d="M1472.65,561.22a10.37,10.37,0,0,1-.14,1.22c-1.46,8.35-12.81,13.5-26.37,12.52A116.73,116.73,0,0,1,1426,568.7h0c-6-1.15-10.62-5-11.29-10.06a10.32,10.32,0,0,1,1.46-6.63c2.08-9,15.81-14.07,31.11-11.38C1462.14,543.21,1473.14,552.28,1472.65,561.22Z"/></g></g></svg>