<svg xmlns="http://www.w3.org/2000/svg" width="380" height="380" viewBox="0 0 380 380">
  <path id="Exclusion_1" data-name="Exclusion 1" d="M281,380H99a98.538,98.538,0,0,1-55.352-16.907A99.289,99.289,0,0,1,7.78,319.535,98.381,98.381,0,0,1,0,281V99A98.537,98.537,0,0,1,16.908,43.648,99.29,99.29,0,0,1,60.465,7.78,98.38,98.38,0,0,1,99,0H281a98.537,98.537,0,0,1,55.352,16.908A99.288,99.288,0,0,1,372.22,60.465,98.381,98.381,0,0,1,380,99V281a98.538,98.538,0,0,1-16.907,55.352,99.287,99.287,0,0,1-43.557,35.868A98.382,98.382,0,0,1,281,380ZM148.825,85.586A13.9,13.9,0,0,0,138.77,89.9a15.265,15.265,0,0,0,0,20.965l75.179,78.543-75.119,78.6a15.265,15.265,0,0,0,0,20.965,13.842,13.842,0,0,0,20.11,0l85.53-89.613a15.272,15.272,0,0,0-.414-20.471L158.881,89.9A13.9,13.9,0,0,0,148.825,85.586Z" fill="#fff"/>
</svg>
