<svg id="Icon_ionic-ios-arrow-dropdown-circle" data-name="Icon ionic-ios-arrow-dropdown-circle" xmlns="http://www.w3.org/2000/svg" width="1429.469" height="1429.469" viewBox="0 0 1429.469 1429.469">
  <path id="Icon_ionic-ios-arrow-dropdown-circle-2" data-name="Icon ionic-ios-arrow-dropdown-circle" d="M1429.469,714.734c0,394.822-319.912,714.735-714.734,714.735S0,1109.557,0,714.734,319.912,0,714.734,0,1429.469,319.912,1429.469,714.734ZM436.057,565.6a66.575,66.575,0,0,0-93.809,0,65.511,65.511,0,0,0-19.243,46.733,66.658,66.658,0,0,0,19.587,47.076l324.036,323a66.241,66.241,0,0,0,91.4-2.062l328.846-327.816a66.333,66.333,0,0,0-93.809-93.809L714.391,840.157Z" transform="translate(0 1429.469) rotate(-90)" fill="#003049"/>
</svg>
