<svg xmlns="http://www.w3.org/2000/svg" width="621.127" height="621" viewBox="0 0 621.127 621">
  <g id="Group_532" data-name="Group 532" transform="translate(-1659 -428.839)">
    <rect id="Rectangle_330" data-name="Rectangle 330" width="621" height="621" rx="10" transform="translate(1659 428.839)" fill="none"/>
    <g id="Icon_ionic-ios-eye" data-name="Icon ionic-ios-eye" transform="translate(1659 554.587)">
      <path id="Path_147" data-name="Path 147" d="M312.482,7.875c-111.462,0-199.357,70.149-304.442,184.8A21.92,21.92,0,0,0,7.9,222.2c89.974,99.4,169.273,184.939,304.581,184.939,133.644,0,233.877-107.719,305.135-185.771a21.747,21.747,0,0,0,.693-28.7C545.666,104.642,445.156,7.875,312.482,7.875Zm6.1,324.267c-73.476,3.327-133.921-57.118-130.455-130.455,2.911-64.049,54.761-115.9,118.81-118.81,73.476-3.327,133.921,57.118,130.455,130.455C434.481,277.381,382.632,329.231,318.582,332.142Z" transform="translate(-2.252 -7.875)" fill="#fff"/>
      <path id="Path_148" data-name="Path 148" d="M102.2,37.068a65.136,65.136,0,0,1,4.3-23.429c-1.386,0-2.773-.139-4.3-.139a88.718,88.718,0,1,0,88.726,88.726c0-1.8-.139-3.6-.139-5.407a61.475,61.475,0,0,1-25.232,5.407C130.624,102.226,102.2,72.974,102.2,37.068Z" transform="translate(208.304 97.408)" fill="#fff"/>
    </g>
  </g>
</svg>
