<svg xmlns="http://www.w3.org/2000/svg" viewBox="0 0 1649.64 488.65"><defs><style>.cls-1{fill:#003049;}.cls-2{fill:#1572ff;}.cls-3{fill:#f7e700;}.cls-4{fill:#f75400;}.cls-5{fill:#f77f00;}.cls-6{fill:#f7c400;}.cls-7{fill:#1590ff;}</style></defs><title>Asset 8</title><g id="Layer_2" data-name="Layer 2"><g id="Layer_1-2" data-name="Layer 1"><path class="cls-1" d="M1358.38,484.59h0c32.75-17.83,46.82-57.49,31.43-88.59L1276.48,167h0c-32.76,17.82-46.83,57.48-31.44,88.58Z"/><path class="cls-2" d="M949.77,288.07l72.39-31,120.78,222.09h0c-40,17.13-88,2.24-107.33-33.23Z"/><path class="cls-3" d="M875,129.87v252.3a131.34,131.34,0,0,1-.95,15.84,124.25,124.25,0,0,1-31,68.89,111.55,111.55,0,0,1-23.05,19.37A111.14,111.14,0,0,1,797,466.9,124.23,124.23,0,0,1,766,398V249.69c0-44.14,21.72-82.7,54-103.49a101.17,101.17,0,0,1,55-16.33Z"/><path class="cls-4" d="M879.77,75.27A61,61,0,0,1,770.45,95.71,61,61,0,0,0,849.57,77.3a60.71,60.71,0,0,0,11.1,1A60.89,60.89,0,0,0,879.77,75.27Z"/><path class="cls-5" d="M874.09,249.69V398a124.25,124.25,0,0,1-31,68.89,111.55,111.55,0,0,1-23.05,19.37A111.14,111.14,0,0,1,797,466.9,124.23,124.23,0,0,1,766,398a131.34,131.34,0,0,1-1-15.84V129.87a101.21,101.21,0,0,1,55,16.33C852.38,167,874.09,205.55,874.09,249.69Z"/><path class="cls-5" d="M849.57,77.3a61,61,0,0,1-79.12,18.41,61,61,0,0,1,31-92.66A61,61,0,0,0,849.57,77.3Z"/><path class="cls-6" d="M879.47,60.94a61,61,0,0,1-1.7,14.33,60.89,60.89,0,0,1-19.1,3,60.71,60.71,0,0,1-11.1-1,61,61,0,0,0,.22-69.83A60.89,60.89,0,0,1,879.47,60.94Z"/><path class="cls-3" d="M858.67,42.23a60.62,60.62,0,0,1-11.1,35.07A61,61,0,0,1,799.43,3.05a61.15,61.15,0,0,1,48.36,4.42A60.55,60.55,0,0,1,858.67,42.23Z"/><path class="cls-7" d="M992.15,396.87,922.54,361.2l152.77-234.8h0c38.44,19.69,51.62,63.31,29.42,97.43Z"/><path class="cls-1" d="M911.77,122.17h45.32a35.06,35.06,0,0,1,35.06,35.06V483.59a0,0,0,0,1,0,0H946.83a35.06,35.06,0,0,1-35.06-35.06V122.17A0,0,0,0,1,911.77,122.17Z"/><path class="cls-7" d="M1197.84,488.65h0c-37.12-11.79-57.06-50.09-44.55-85.56L1250.36,128h0c37.11,11.78,57.05,50.09,44.54,85.55Z"/><path class="cls-1" d="M1468.3,137h36.63A35.06,35.06,0,0,1,1540,172V486.5a0,0,0,0,1,0,0h-36.63a35.06,35.06,0,0,1-35.06-35.06V137a0,0,0,0,1,0,0Z"/><path class="cls-7" d="M1470.52,14.25h35.68a31.58,31.58,0,0,1,31.58,31.58V305.22a0,0,0,0,1,0,0H1502.1a31.58,31.58,0,0,1-31.58-31.58V14.25a0,0,0,0,1,0,0Z" transform="translate(1663.88 -1344.41) rotate(90)"/><path class="cls-2" d="M601.26,154.43h22.37a0,0,0,0,1,0,0V375.34a72.57,72.57,0,0,1-72.57,72.57H528.7a0,0,0,0,1,0,0V227a72.57,72.57,0,0,1,72.57-72.57Z" transform="translate(274.99 877.34) rotate(-90)"/><path class="cls-1" d="M517.67,281.2h38.57a72.57,72.57,0,0,1,72.57,72.57V574.67a0,0,0,0,1,0,0H590.23a72.57,72.57,0,0,1-72.57-72.57V281.2A0,0,0,0,1,517.67,281.2Z" transform="translate(145.3 1001.17) rotate(-90)"/><path class="cls-7" d="M519.93,28.75H554a72.57,72.57,0,0,1,72.57,72.57V322.22a0,0,0,0,1,0,0H592.49a72.57,72.57,0,0,1-72.57-72.57V28.75A0,0,0,0,1,519.93,28.75Z" transform="translate(397.76 748.72) rotate(-90)"/><path class="cls-4" d="M266.31,465.52A183.88,183.88,0,0,1,6.25,253.62,184,184,0,0,0,202.8,400a185,185,0,0,0,63.51,65.57Z"/><path class="cls-5" d="M202.8,400A184,184,0,0,1,6.25,253.62,183.92,183.92,0,0,1,280,144.4,184,184,0,0,0,202.8,400Z"/><path class="cls-6" d="M302.62,441.51a184,184,0,0,1-36.31,24A185,185,0,0,1,202.8,400,183.93,183.93,0,0,0,364,264.38,183.69,183.69,0,0,1,302.62,441.51Z"/><path class="cls-3" d="M305.18,357.15A182.92,182.92,0,0,1,202.8,400,184,184,0,0,1,280,144.4a184.4,184.4,0,0,1,84,120A182.61,182.61,0,0,1,305.18,357.15Z"/></g></g></svg>