<svg xmlns="http://www.w3.org/2000/svg" viewBox="0 0 1393.99 680.75"><defs><style>.cls-1{fill:#ffffd2;}.cls-2{fill:#ffb08b;}.cls-3{fill:#e2923d;}.cls-4{fill:#d88029;}.cls-5{fill:#ffc79f;}.cls-6{fill:#d86713;}.cls-7{fill:#d8d8d8;}.cls-8{fill:#fff;}.cls-9{fill:#f77f00;}.cls-10{fill:#fcbf49;}</style></defs><title>Dashboard Admin Female</title><g id="Layer_2" data-name="Layer 2"><g id="Layer_1-2" data-name="Layer 1"><path class="cls-1" d="M69.1,677.21S-47.68,532.41,22.39,394.62s203.19-105.1,390-245.23C639.24-20.73,798.52-30.08,1001,44.29c114.44,42,133.12,214.87,315.29,322.3,164.23,96.85,30.37,261.58-56,287.27s-144.8,25.69-144.8,25.69Z"/><path d="M792.06,262.11c-3.12,74.73-2.34,115.2,24.91,146.34S920.5,431.8,920.5,431.8s7.52,110,114.17,114.69,121.95-137,38.4-173.33c-79.54-34.58-104.83-44.63-132.33-130.25-25.13-78.23-103.53-63.32-122.22-30.62S792.06,262.11,792.06,262.11Z"/><path class="cls-2" d="M827.09,643.54s-50.34,9.86-52.94,9.34S716.55,628,710.84,631.6s-38.92,17.64-46.19,20.76,4.16,4.15,9.86,4.15,38.41-13.49,42-10.9S688,653.4,688,655.47s86.14,21.8,91.33,21.8,45.15-3.63,45.15-3.63Z"/><path class="cls-3" d="M868.86,368.62c-27.11,5.32-43.07,34-48.26,59.15S868.86,368.62,868.86,368.62Z"/><path class="cls-3" d="M995.79,539.05c-1.26,8.87-2.59,17.79-3.94,26.63q-1,6.27-2,12.47c-2.55,16.15-5.15,31.81-7.51,46.18-.07.4-.14.81-.2,1.21-2.25,13.66-4.28,26.12-5.86,36.67-.49,3.31-.94,6.44-1.34,9.35a36.8,36.8,0,0,1-1.86,7.67c-.18.52-.38,1-.59,1.52H811.9c-2.16-.76-3.95-1.4-5.29-1.89-1.87-.68-2.88-1.07-2.88-1.07s.15-.79.39-2.35c.19-1.22.44-2.93.72-5.09s.61-5,.93-8.14q.4-4,.78-9c.14-1.84.27-3.79.39-5.83q.38-6,.59-13.21c0-.78.06-1.58.08-2.39l0-1.32c.12-5.45.17-11.33.09-17.62h0c0-4.48-.15-9.15-.33-14,0-.88-.07-1.77-.1-2.67a634.76,634.76,0,0,0-6.68-68.59c-6.12-40.45,5.15-71.7,19.65-96.46,2.69-4.59,5.48-8.95,8.3-13.1,6.91-10.22,14-19.19,19.79-27.18,6.15-8.44,11.77-15.47,16.89-21.32,1.84-2.12,3.63-4.08,5.35-5.89,12.19-12.85,21.22-18.41,27.8-20.23,12.05-3.33,15.87,5.92,15.87,5.92l7.33,4.91c12.54,8.36,38.83,25.81,59.8,39.11,4.68,3,9.1,5.73,13,8.14a12.66,12.66,0,0,1,4.21,4.59C1009.12,424,1004.07,480.53,995.79,539.05Z"/><path class="cls-4" d="M1010.3,680.75H907.65c-1.58-.54-3.16-1.1-4.77-1.68h0c-14.2-5.06-29.2-11.06-43-16.86-12.57-5.29-24.13-10.41-33.16-14.5-2.27-1-4.38-2-6.3-2.88-8-3.65-12.8-6-12.8-6l-.09-4.68,0-2.42,0-1.33-.33-18.1-.25-13.61,0-2.68.46.09c7.83,1.48,113.1,21.22,110.86,8.48-2.34-13.24-6.23-27.25-17.91-66.17C889.64,503.09,897,486,924.11,452.31c7.52-9.37,16.55-20,27.15-32.71,0,0,0,0,0,0,4.51-5.4,9.29-11.16,14.37-17.36l1.15,7.16,20.2,126,4.86,30.31,2,12.27,13.51,84.26,2.75,17.1Z"/><path class="cls-5" d="M895.07,275.6l27,79.92s-29.58,80.18-54.49,62.27c-8.5-6.11,3.12-54.49,3.12-54.49l-18.17-64.87Z"/><path class="cls-5" d="M1049.16,662.21a108.41,108.41,0,0,1-2.87,17.19q-.19.71-.39,1.35H963.57q-2.79-.75-5.64-1.55h0c-17.88-5-37.08-10.91-56.09-17-35.35-11.32-70-23.16-94.22-30.41l-.12,0c-6.6-2-12.43-3.6-17.27-4.79h0c-5.86-1.42-10.29-2.19-12.92-2.11-18.8.53-3.11-31.14-3.11-31.14L788,595.84l18.86,2.89.51.08,174.78,26.73.59.09s-.14-.45-.39-1.3c-1.47-4.91-6.87-23.31-12.64-46.42-5-19.9-10.2-43.28-13.42-64.6h0c-1.92-12.74-3.13-24.73-3.13-34.79,0-32,5.77-56.24,13.6-69.12,4.38-7.2,9.4-10.84,14.42-10.28A33.3,33.3,0,0,1,998.65,406c21.49,16.92,26.2,63.06,40.16,131.63.61,3,1.2,6,1.75,8.92q2.18,11.43,3.8,22.09C1050.59,609.36,1051.22,641.35,1049.16,662.21Z"/><path class="cls-5" d="M787.39,595.27c-21.8-5.45-53.72-17.9-59.94-12.45S695.53,627.19,687,638.09s3.89,2.33,13.23-6.23a118.79,118.79,0,0,1,17.13-13.23S729,629.52,739.9,635.75s14.79-6.23,33.47-9.34,65.39,13.23,65.39,13.23Z"/><path class="cls-3" d="M977.06,392.88c22.84,1,40.48,20.24,46.71,49.82s24.39,123.51,24.39,123.51,3.63,2.6-34.25,9.34-69-1-69-1-7.79-53.46-5.71-90.3,10.38-71.62,23.87-83.55S977.06,392.88,977.06,392.88Z"/><path class="cls-2" d="M870.68,363.3l-18.17-64.87,42.56-22.83,6.5,19.25c1.41,64.44-15.09,86-26.22,93.88-3.48,2.46-6.46.56-9-3.46C868.21,373.59,870.68,363.3,870.68,363.3Z"/><path class="cls-5" d="M786.74,287.7c0,34.72,10.68,81.71,40.78,80.71,46.71-1.56,76.14-37.86,76.14-72.58S879.24,233,849.12,233,786.74,253,786.74,287.7Z"/><path d="M859.74,186.7c-33.08-2.34-76.76,53.09-82.47,79.56-4.12,19.09-2.08,22.83-2.08,22.83s3.63,5.19,29.58,6.75,29.06,1,29.06,1l1.56-30.1,7.78,29.06s18.49-1.36,34.57-9.14,17-11,17-11,23.46-34.58,11-46S859.74,186.7,859.74,186.7Z"/><path class="cls-6" d="M1251.8,671.48a9.27,9.27,0,0,1-9.27,9.27H40.78a9.27,9.27,0,0,1,0-18.54H1242.53A9.27,9.27,0,0,1,1251.8,671.48Z"/><rect class="cls-7" x="541.42" y="653.22" width="288.02" height="17.13" rx="7.49"/><path class="cls-7" d="M538.92,616.26h-275a30.09,30.09,0,0,1-29.49-24.9l-35.87-198c-3.39-18.67,10.76-35.89,29.48-35.89H503.05a30.1,30.1,0,0,1,29.49,24.91l35.87,198C571.8,599.05,557.65,616.26,538.92,616.26Z"/><path class="cls-8" d="M551.78,581.12,515.16,387.2c-2.66-14.13-15.32-24.39-30.09-24.39H205.54a30.88,30.88,0,0,0-7,25.85l37.14,202.18a31,31,0,0,0,30.52,25.42h255.5C540.79,616.26,555.23,599.41,551.78,581.12Z"/><path class="cls-7" d="M485.45,642.78H433.24c-9.32,0-16.87-8.29-16.87-18.52V528.79c0-16.28-12-29.48-26.83-29.48H362.26c-14.82,0-26.84,13.2-26.84,29.48V635.7c0,18.29,13.55,33.07,30.19,33l142.51-1C508.12,653.93,498,642.78,485.45,642.78Z"/><path class="cls-8" d="M337.5,530.93V636.21a32.45,32.45,0,0,0,30.09,32.36l139.08-.87c0-2.28-11-6.43-24.52-6.43H425.66A18.24,18.24,0,0,1,407.42,643V530.93a29,29,0,0,0-29-29H366.53A29,29,0,0,0,337.5,530.93Z"/><path class="cls-9" d="M120.23,208.7H353.88a4.6,4.6,0,0,1,4.6,4.6V313.84a4.6,4.6,0,0,1-4.6,4.6H120.23a4.61,4.61,0,0,1-4.61-4.61V213.3A4.61,4.61,0,0,1,120.23,208.7Z"/><rect class="cls-10" x="122.26" y="237.53" width="229.58" height="75.77" rx="3.72"/><rect class="cls-8" x="303.63" y="217.77" width="9.51" height="8.56" rx="2.06"/><rect class="cls-8" x="320.93" y="217.77" width="9.51" height="8.56" rx="2.06"/><rect class="cls-8" x="338.23" y="217.77" width="9.52" height="8.56" rx="2.06"/><path class="cls-8" d="M255.5,258.37H134.06c-2,0-3.63-2.56-3.63-5.69s1.64-5.69,3.63-5.69H255.5c2,0,3.63,2.56,3.63,5.69S257.5,258.37,255.5,258.37Z"/><path class="cls-8" d="M256.16,310.18H134.73a3.63,3.63,0,1,1,0-7.26H256.16a3.63,3.63,0,1,1,0,7.26Z"/><rect class="cls-8" x="264.73" y="302.92" width="15.05" height="7.27" rx="1.24"/><rect class="cls-8" x="283.67" y="302.92" width="15.05" height="7.27" rx="1.24"/><path class="cls-8" d="M255.5,271.14H134.06a3.64,3.64,0,0,1,0-7.27H255.5a3.64,3.64,0,0,1,0,7.27Z"/><path class="cls-8" d="M255.5,283.14H134.06a3.64,3.64,0,0,1,0-7.27H255.5a3.64,3.64,0,0,1,0,7.27Z"/><path class="cls-9" d="M317.23,89.7H550.88a4.6,4.6,0,0,1,4.6,4.6V194.84a4.6,4.6,0,0,1-4.6,4.6H317.23a4.61,4.61,0,0,1-4.61-4.61V94.3A4.6,4.6,0,0,1,317.23,89.7Z"/><rect class="cls-10" x="319.26" y="118.53" width="229.58" height="75.77" rx="3.72"/><rect class="cls-8" x="500.63" y="98.77" width="9.51" height="8.56" rx="2.06"/><rect class="cls-8" x="517.93" y="98.77" width="9.51" height="8.56" rx="2.06"/><rect class="cls-8" x="535.23" y="98.77" width="9.52" height="8.56" rx="2.06"/><path class="cls-8" d="M452.5,139.37H331.06c-2,0-3.63-2.56-3.63-5.69s1.64-5.69,3.63-5.69H452.5c2,0,3.63,2.56,3.63,5.69S454.5,139.37,452.5,139.37Z"/><path class="cls-8" d="M453.16,191.18H331.73a3.63,3.63,0,1,1,0-7.26H453.16a3.63,3.63,0,1,1,0,7.26Z"/><rect class="cls-8" x="461.73" y="183.92" width="15.05" height="7.27" rx="1.24"/><rect class="cls-8" x="480.67" y="183.92" width="15.05" height="7.27" rx="1.24"/><path class="cls-8" d="M452.5,152.14H331.06a3.64,3.64,0,0,1,0-7.27H452.5a3.64,3.64,0,0,1,0,7.27Z"/><path class="cls-8" d="M452.5,164.14H331.06a3.64,3.64,0,0,1,0-7.27H452.5a3.64,3.64,0,0,1,0,7.27Z"/></g></g></svg>