<svg xmlns="http://www.w3.org/2000/svg" width="129.636" height="52.44" viewBox="0 0 129.636 52.44">
  <defs>
    <style>
      .cls-1 {
        fill: #003049;
      }

      .cls-2 {
        fill: #1572ff;
      }

      .cls-3 {
        fill: #f7e700;
      }

      .cls-4 {
        fill: #f75400;
      }

      .cls-5 {
        fill: #f77f00;
      }

      .cls-6 {
        fill: #f7c400;
      }

      .cls-7 {
        fill: #1590ff;
      }
    </style>
  </defs>
  <g id="Layer_1" data-name="Layer 1" transform="translate(-0.001 0)">
    <path id="Path_38" data-name="Path 38" class="cls-1" d="M813.005,201.082h0a7.345,7.345,0,0,0,3.373-9.507L804.215,167h0a7.343,7.343,0,0,0-3.373,9.506Z" transform="translate(-714.302 -149.078)"/>
    <path id="Path_39" data-name="Path 39" class="cls-2" d="M518.13,260.4l7.77-3.327L538.861,280.9h0c-4.293,1.838-9.444.24-11.518-3.566Z" transform="translate(-462.526 -229.483)"/>
    <path id="Path_40" data-name="Path 40" class="cls-3" d="M344,129.87v27.076a14.094,14.094,0,0,1-.107,1.7,13.335,13.335,0,0,1-3.327,7.393,11.97,11.97,0,0,1-2.474,2.079,11.929,11.929,0,0,1-2.476-2.079,13.332,13.332,0,0,1-3.327-7.393V142.728a13.132,13.132,0,0,1,5.8-11.106,10.857,10.857,0,0,1,5.9-1.752Z" transform="translate(-296.63 -115.933)"/>
    <path id="Path_41" data-name="Path 41" class="cls-4" d="M348.552,75.27a6.546,6.546,0,0,1-11.732,2.194,6.546,6.546,0,0,0,8.491-1.976,6.638,6.638,0,0,0,3.241-.218Z" transform="translate(-300.674 -67.192)"/>
    <path id="Path_42" data-name="Path 42" class="cls-5" d="M343.095,142.728v15.916a13.334,13.334,0,0,1-3.327,7.393,11.969,11.969,0,0,1-2.474,2.079,11.924,11.924,0,0,1-2.476-2.079,13.332,13.332,0,0,1-3.327-7.393,14.1,14.1,0,0,1-.1-1.7V129.87a10.864,10.864,0,0,1,5.9,1.752A13.13,13.13,0,0,1,343.095,142.728Z" transform="translate(-295.826 -115.933)"/>
    <path id="Path_43" data-name="Path 43" class="cls-5" d="M335.616,11.018a6.546,6.546,0,0,1-8.491,1.976,6.546,6.546,0,0,1,3.327-9.944,6.546,6.546,0,0,0,5.164,7.968Z" transform="translate(-290.979 -2.723)"/>
    <path id="Path_44" data-name="Path 44" class="cls-6" d="M419.363,13.181a6.541,6.541,0,0,1-.182,1.538,6.678,6.678,0,0,1-3.241.215,6.546,6.546,0,0,0,.024-7.494A6.536,6.536,0,0,1,419.363,13.181Z" transform="translate(-371.303 -6.642)"/>
    <path id="Path_45" data-name="Path 45" class="cls-3" d="M372.638,4.532A6.506,6.506,0,0,1,371.447,8.3,6.546,6.546,0,0,1,366.285.327a6.562,6.562,0,0,1,5.19.474,6.5,6.5,0,0,1,1.163,3.73Z" transform="translate(-326.814 0)"/>
    <path id="Path_46" data-name="Path 46" class="cls-7" d="M498.38,155.426l-7.47-3.828L507.3,126.4h0c4.125,2.113,5.54,6.794,3.157,10.456Z" transform="translate(-438.228 -112.835)"/>
    <path id="Path_47" data-name="Path 47" class="cls-1" d="M480.14,122.17H485a3.762,3.762,0,0,1,3.762,3.762v35.023H483.9a3.762,3.762,0,0,1-3.762-3.762Z" transform="translate(-428.613 -109.059)"/>
    <path id="Path_48" data-name="Path 48" class="cls-7" d="M716.106,166.7h0a7.162,7.162,0,0,1-4.78-9.182L721.743,128h0a7.165,7.165,0,0,1,4.78,9.181Z" transform="translate(-634.632 -114.264)"/>
    <path id="Path_49" data-name="Path 49" class="cls-1" d="M1026.67,137h3.931a3.762,3.762,0,0,1,3.762,3.756v33.751h-3.931a3.762,3.762,0,0,1-3.762-3.762V137Z" transform="translate(-916.492 -122.298)"/>
    <path id="Path_50" data-name="Path 50" class="cls-7" d="M0,0H3.829A3.389,3.389,0,0,1,7.218,3.389V31.225H3.389A3.389,3.389,0,0,1,0,27.836Z" transform="translate(129.637 13.533) rotate(90)"/>
    <path id="Path_51" data-name="Path 51" class="cls-2" d="M3.762,0h6.425V27.611a3.762,3.762,0,0,1-3.762,3.762H0V3.762A3.762,3.762,0,0,1,3.762,0Z" transform="translate(0.314 37.413) rotate(-90)"/>
    <path id="Path_52" data-name="Path 52" class="cls-1" d="M0,0H8.165a3.762,3.762,0,0,1,3.762,3.762V31.373H3.762A3.762,3.762,0,0,1,0,27.611Z" transform="translate(0.001 51.887) rotate(-90)"/>
    <path id="Path_53" data-name="Path 53" class="cls-7" d="M0,0H7.679a3.762,3.762,0,0,1,3.762,3.762V31.375H3.762A3.762,3.762,0,0,1,0,27.612Z" transform="translate(0.001 24.553) rotate(-90)"/>
  </g>
</svg>
