<svg xmlns="http://www.w3.org/2000/svg" width="42.301" height="42.289" viewBox="0 0 42.301 42.289">
  <defs>
    <style>
      .cls-1 {
        fill: #f75400;
      }

      .cls-2 {
        fill: #f77f00;
      }

      .cls-3 {
        fill: #f7c400;
      }

      .cls-4 {
        fill: #f7e700;
      }
    </style>
  </defs>
  <g id="Layer_2" data-name="Layer 2" transform="translate(0.001 0)">
    <g id="Layer_1" data-name="Layer 1" transform="translate(-0.001 0)">
      <path id="Path_54" data-name="Path 54" class="cls-1" d="M30.632,79.516A21.151,21.151,0,0,1,.717,55.14a21.154,21.154,0,0,0,22.6,16.832,21.242,21.242,0,0,0,7.307,7.543Z" transform="translate(0.003 -39.472)"/>
      <path id="Path_55" data-name="Path 55" class="cls-2" d="M25.126,32.536A21.154,21.154,0,0,1,2.53,15.7,21.154,21.154,0,0,1,34.014,3.153a21.163,21.163,0,0,0-8.888,29.383Z" transform="translate(-1.81 -0.035)"/>
      <path id="Path_56" data-name="Path 56" class="cls-3" d="M93.5,79.875a21.2,21.2,0,0,1-4.177,2.761A21.242,21.242,0,0,1,82,75.093,21.154,21.154,0,0,0,100.555,59.5,21.129,21.129,0,0,1,93.5,79.875Z" transform="translate(-58.684 -42.592)"/>
      <path id="Path_57" data-name="Path 57" class="cls-4" d="M86.808,35.452a21.04,21.04,0,0,1-11.788,4.93A21.163,21.163,0,0,1,83.908,11a21.208,21.208,0,0,1,9.667,13.8,21.015,21.015,0,0,1-6.767,10.651Z" transform="translate(-51.704 -7.882)"/>
    </g>
  </g>
</svg>
